<svg width="256" height="256" viewBox="0 0 256 256" fill="none" xmlns="http://www.w3.org/2000/svg">
  <rect width="256" height="256" rx="64" fill="url(#bg)"/>
  <path d="M128 42L192 68V123C192 161.28 165.84 196.185 128 206C90.1598 196.185 64 161.28 64 123V68L128 42Z" fill="url(#shield)" stroke="#E2E8F0" stroke-width="8"/>
  <path d="M128 73C102.057 73 81 94.0566 81 120C81 145.943 102.057 167 128 167C153.943 167 175 145.943 175 120C175 94.0566 153.943 73 128 73Z" fill="#0F172A" fill-opacity="0.24"/>
  <path d="M128 89C110.879 89 97 102.879 97 120C97 137.121 110.879 151 128 151C145.121 151 159 137.121 159 120C159 102.879 145.121 89 128 89Z" stroke="#67E8F9" stroke-width="10"/>
  <path d="M128 55V78" stroke="#F8FAFC" stroke-width="10" stroke-linecap="round"/>
  <path d="M128 162V185" stroke="#F8FAFC" stroke-width="10" stroke-linecap="round"/>
  <path d="M193 120H170" stroke="#F8FAFC" stroke-width="10" stroke-linecap="round"/>
  <path d="M86 120H63" stroke="#F8FAFC" stroke-width="10" stroke-linecap="round"/>
  <path d="M169.012 78.9883L152.748 95.2519" stroke="#86EFAC" stroke-width="10" stroke-linecap="round"/>
  <path d="M103.252 144.748L86.9883 161.012" stroke="#86EFAC" stroke-width="10" stroke-linecap="round"/>
  <path d="M169.012 161.012L152.748 144.748" stroke="#FCD34D" stroke-width="10" stroke-linecap="round"/>
  <path d="M103.252 95.2519L86.9883 78.9883" stroke="#FCD34D" stroke-width="10" stroke-linecap="round"/>
  <circle cx="128" cy="120" r="12" fill="#F8FAFC"/>
  <defs>
    <linearGradient id="bg" x1="24" y1="18" x2="230" y2="236" gradientUnits="userSpaceOnUse">
      <stop stop-color="#0F172A"/>
      <stop offset="0.55" stop-color="#115E59"/>
      <stop offset="1" stop-color="#1D4ED8"/>
    </linearGradient>
    <linearGradient id="shield" x1="84" y1="54" x2="173" y2="201" gradientUnits="userSpaceOnUse">
      <stop stop-color="#E0F2FE" stop-opacity="0.95"/>
      <stop offset="1" stop-color="#C7D2FE" stop-opacity="0.78"/>
    </linearGradient>
  </defs>
</svg>
